<?xml version="1.0" standalone="no"?>
<!DOCTYPE svg PUBLIC "-//W3C//DTD SVG 1.1//EN" "http://www.w3.org/Graphics/SVG/1.1/DTD/svg11.dtd" >
<svg>
<metadata>
Created by FontForge 20120731 at Tue Sep 20 00:57:08 2016
 By www
Modern and elegant sans serif free font.
</metadata>
<defs>
<font id="Weston-Free" horiz-adv-x="807" >
  <font-face 
    font-family="Weston Free"
    font-weight="400"
    font-stretch="normal"
    units-per-em="1000"
    panose-1="2 0 0 0 0 0 0 0 0 0"
    ascent="750"
    descent="-250"
    x-height="700"
    cap-height="701"
    bbox="-141.139 -239.508 1412 945.25"
    underline-thickness="50"
    underline-position="-50"
    unicode-range="U+0020-FB02"
  />
<missing-glyph horiz-adv-x="238" 
 />
    <glyph glyph-name=".notdef" horiz-adv-x="238" 
 />
    <glyph glyph-name="space" unicode=" " horiz-adv-x="359" 
 />
    <glyph glyph-name="acute" unicode="&#xb4;" horiz-adv-x="335" 
d="M108 760l64 70c48 48 117 -24 70 -70l-66 -62c-43 -39 -107 25 -68 62z" />
    <glyph glyph-name="dieresis" unicode="&#xa8;" horiz-adv-x="468" 
d="M39 753c0 33 25 59 58 59c32 0 57 -26 57 -58s-24 -59 -57 -59c-32 0 -58 26 -58 58zM311 753c0 33 25 59 58 59c32 0 57 -26 57 -58s-24 -59 -57 -59c-32 0 -58 26 -58 58z" />
    <glyph glyph-name="fraction" unicode="&#x2044;" horiz-adv-x="178" 
d="M-136 -29l343 761c11 25 42 36 67 24s36 -41 24 -66l-343 -761c-12 -24 -42 -36 -67 -24c-24 11 -37 42 -24 66z" />
    <glyph glyph-name="dotlessi" unicode="&#x131;" horiz-adv-x="318" 
d="M255 100c27 0 50 -22 50 -50c0 -27 -23 -50 -50 -50h-193c-27 0 -50 23 -50 50c0 28 23 50 50 50h46v501h-46c-27 0 -50 22 -50 50c0 27 23 50 50 50h193c27 0 50 -23 50 -50c0 -28 -23 -50 -50 -50h-46v-501h46z" />
    <glyph glyph-name="Thorn" unicode="&#xde;" horiz-adv-x="718" 
d="M503 550c262 0 262 -398 0 -398h-262v-51h46c28 0 50 -23 50 -51c0 -27 -22 -50 -50 -50h-192c-28 0 -50 23 -50 50c0 28 22 51 50 51h46v51h-46c-28 0 -50 23 -50 50c0 28 22 50 50 50h46v198h-46c-28 0 -50 22 -50 50s22 50 50 50h46v49h-46c-28 0 -50 23 -50 51
c0 27 22 50 50 50h192c28 0 50 -23 50 -50c0 -28 -22 -51 -50 -51h-46v-49h262zM502 252c132 0 131 198 1 198h-262v-198h261z" />
    <glyph glyph-name="eth" unicode="&#xf0;" horiz-adv-x="758" 
d="M388 700c458 0 458 -700 0 -700h-294c-28 0 -50 23 -50 50c0 28 22 50 50 50h50v202h-52c-28 0 -50 23 -50 50c0 28 22 50 50 50h52v197h-50c-28 0 -50 23 -50 51c0 27 22 50 50 50h294zM375 302h-131v-202h143c328 0 327 499 1 499h-144v-197h131c27 0 50 -22 50 -50
c0 -27 -23 -50 -50 -50z" />
    <glyph glyph-name="thorn" unicode="&#xfe;" horiz-adv-x="718" 
d="M503 550c262 0 262 -398 0 -398h-262v-51h46c28 0 50 -23 50 -51c0 -27 -22 -50 -50 -50h-192c-28 0 -50 23 -50 50c0 28 22 51 50 51h46v51h-46c-28 0 -50 23 -50 50c0 28 22 50 50 50h46v198h-46c-28 0 -50 22 -50 50s22 50 50 50h46v49h-46c-28 0 -50 23 -50 51
c0 27 22 50 50 50h192c28 0 50 -23 50 -50c0 -28 -22 -51 -50 -51h-46v-49h262zM502 252c132 0 131 198 1 198h-262v-198h261z" />
    <glyph glyph-name="oe" unicode="&#x153;" horiz-adv-x="1054" 
d="M393 -29c-499 0 -499 759 0 759c60 0 112 -11 158 -30h400c27 0 50 -22 50 -50v-104c0 -28 -23 -50 -50 -50c-28 0 -51 22 -51 50v54h-298v-198h191c27 0 50 -23 50 -50c0 -28 -23 -51 -50 -51h-191v-201h324v48c0 28 22 50 50 50s50 -22 50 -50v-95
c0 -20 -11 -36 -27 -45c-8 -5 -18 -8 -28 -8h-423c-45 -18 -97 -29 -155 -29zM393 633c-367 0 -367 -565 0 -565c43 0 82 8 115 22v521c-33 14 -72 22 -115 22z" />
    <glyph glyph-name="lslash" unicode="&#x142;" horiz-adv-x="713" 
d="M95 100h46v169l-40 -18c-62 -25 -95 60 -39 87l79 36v228h-46c-27 0 -50 22 -50 50c0 27 23 50 50 50h193c27 0 50 -23 50 -50c0 -28 -23 -50 -50 -50h-46v-181l86 40c54 28 97 -60 41 -88l-127 -58v-215h356v53c0 28 23 50 50 50c28 0 50 -22 50 -50v-103
c0 -27 -22 -50 -50 -50h-553c-27 0 -50 23 -50 50c0 28 23 50 50 50z" />
    <glyph glyph-name="exclam" unicode="!" horiz-adv-x="189" 
d="M94 -14c-30 0 -55 23 -55 54c0 29 24 53 54 53s54 -23 54 -53s-24 -54 -53 -54zM93 189c-28 0 -50 23 -50 50v416c0 28 22 50 50 50s50 -22 50 -50v-416c0 -27 -22 -50 -50 -50z" />
    <glyph glyph-name="comma" unicode="," horiz-adv-x="236" 
d="M30 -57l52 112c27 60 118 18 91 -42l-54 -111c-27 -60 -117 -19 -89 41z" />
    <glyph glyph-name="period" unicode="." horiz-adv-x="230" 
d="M113 -13c-33 0 -59 25 -59 58c0 32 26 57 58 57s59 -24 59 -57c0 -32 -26 -58 -58 -58z" />
    <glyph glyph-name="question" unicode="?" horiz-adv-x="619" 
d="M277 211c-28 0 -50 23 -50 50c0 133 113 142 165 143h2c55 0 99 45 99 101c0 55 -44 99 -99 99h-184c-55 0 -100 -44 -100 -99c0 -28 -22 -50 -50 -50c-27 0 -50 22 -50 50c0 110 90 199 200 199h184c110 0 200 -89 200 -199c0 -105 -81 -192 -183 -200
c-2 -1 -5 -1 -8 -1c-76 0 -76 -16 -76 -43s-23 -50 -50 -50zM280 -15h-1c-29 0 -53 24 -53 54c0 29 24 53 53 53h1c30 0 54 -24 54 -53c0 -30 -24 -54 -54 -54z" />
    <glyph glyph-name="grave" unicode="`" horiz-adv-x="197" 
d="M98 789l64 -70c39 -37 -25 -101 -68 -62l-66 62c-47 46 22 118 70 70z" />
    <glyph glyph-name="circumflex" unicode="&#x2c6;" horiz-adv-x="460" 
d="M268 850l77 -51c55 -42 2 -105 -52 -76l-63 43l-66 -45c-53 -31 -109 40 -54 75l84 55c29 19 47 14 74 -1z" />
    <glyph glyph-name="tilde" unicode="&#x2dc;" horiz-adv-x="403" 
d="M57 682c18 42 58 62 95 62c61 0 104 -70 131 -34c35 47 104 15 73 -44c-23 -38 -62 -57 -98 -57c-56 0 -96 76 -127 33c-24 -39 -95 -9 -74 40z" />
    <glyph glyph-name="cedilla" unicode="&#xb8;" horiz-adv-x="382" 
d="M141 19h91l-12 -44c62 -11 98 -64 84 -123c-15 -59 -66 -85 -132 -81c-49 2 -99 19 -124 66c-22 41 48 85 77 41c13 -20 30 -24 54 -24c65 0 44 75 -34 48l-31 30z" />
    <glyph glyph-name="caron" unicode="&#x2c7;" horiz-adv-x="462" 
d="M201 655l-77 51c-55 42 -2 105 52 76l63 -43l66 45c53 31 109 -40 54 -75l-84 -55c-29 -19 -47 -14 -74 1z" />
    <glyph glyph-name="ogonek" unicode="&#x2db;" horiz-adv-x="377" 
d="M126 42h91l27 -87l-31 -30c-78 27 -99 -48 -34 -48c24 0 41 4 54 24c29 44 93 8 71 -33c-25 -47 -69 -72 -118 -74c-66 -4 -117 22 -132 81c-14 59 22 112 84 123z" />
    <glyph glyph-name="hungarumlaut" unicode="&#x2dd;" horiz-adv-x="436" 
d="M237 606l90 105c17 20 45 22 64 6s22 -45 6 -64l-90 -105c-16 -19 -45 -21 -64 -5c-19 15 -22 45 -6 63zM66 606l90 105c17 20 45 22 64 6s22 -45 6 -64l-90 -105c-16 -19 -45 -21 -64 -5c-19 15 -22 45 -6 63z" />
    <glyph glyph-name="ring" unicode="&#x2da;" horiz-adv-x="347" 
d="M48 629c0 143 236 143 236 0c0 -141 -236 -141 -236 0zM164 669c-53 0 -56 -79 0 -79c59 0 59 79 0 79z" />
    <glyph glyph-name="dotaccent" unicode="&#x2d9;" horiz-adv-x="198" 
d="M92 602c-33 0 -59 25 -59 58c0 32 26 57 58 57s59 -24 59 -57c0 -32 -26 -58 -58 -58z" />
    <glyph glyph-name="breve" unicode="&#x2d8;" horiz-adv-x="427" 
d="M280 662c1 27 25 44 48 44s45 -16 45 -47c-4 -91 -73 -146 -163 -146c-94 0 -161 55 -165 146c0 30 23 47 46 47c22 0 45 -18 47 -46c7 -35 39 -53 70 -53c34 0 68 17 72 55z" />
    <glyph glyph-name="ae" unicode="&#xe6;" horiz-adv-x="1062" 
d="M984 198c28 0 50 -22 50 -50v-95c0 -28 -22 -53 -55 -53h-490c-28 0 -50 22 -50 50c0 27 22 50 50 50h46v161l-226 1l-101 -161h34c27 0 50 -23 50 -51c0 -27 -23 -50 -50 -50h-192c-28 0 -50 23 -50 50c0 28 22 51 50 51h48l102 161h-6c-28 0 -50 21 -50 49
c0 27 22 50 50 50h62l148 239h-11c-28 0 -50 22 -50 50c0 27 22 50 50 50h566c27 0 50 -22 50 -50v-104c0 -28 -23 -50 -50 -50c-28 0 -51 22 -51 50v54h-273v-239h166c27 0 50 -23 50 -50c0 -28 -23 -50 -50 -50h-166v-161h299v48c0 28 22 50 50 50zM370 361h165v239h-17z
" />
    <glyph glyph-name="B" unicode="B" horiz-adv-x="748" 
d="M623 359c60 -32 100 -90 100 -159c0 -110 -90 -200 -200 -200h-428c-27 0 -50 23 -50 50c0 28 23 51 50 51h46v198h-46c-27 0 -50 22 -50 50s23 50 50 50h46v201h-46c-27 0 -50 22 -50 50c0 27 23 50 50 50h401c110 0 200 -92 200 -202c0 -55 -26 -109 -73 -139zM242 600
v-201h254c55 0 100 45 100 99c0 55 -45 102 -100 102h-254zM522 101c55 0 100 43 100 99c0 54 -44 99 -99 99h-27h-254v-198h280z" />
    <glyph glyph-name="A" unicode="A" 
d="M754 101c28 0 50 -23 50 -51c0 -27 -22 -50 -50 -50h-180c-27 0 -50 23 -50 50c0 28 23 51 50 51h22l-53 117h-282l-53 -117h22c27 0 50 -23 50 -51c0 -27 -23 -50 -50 -50h-180c-28 0 -50 23 -50 50c0 28 22 51 50 51h48l53 117h-5c-28 0 -50 22 -50 50
c0 27 22 50 50 50h50l127 285h-11c-28 0 -50 22 -50 50c0 27 22 50 50 50h180c28 0 50 -23 50 -50c0 -28 -22 -50 -50 -50h-11l127 -285h50c28 0 50 -23 50 -50c0 -28 -22 -50 -50 -50h-5l53 -117h48zM306 318h192l-96 217z" />
    <glyph glyph-name="C" unicode="C" horiz-adv-x="690" 
d="M615 0h-253c-458 0 -458 700 0 700h253c28 0 50 -23 50 -50v-104c0 -28 -22 -51 -50 -51c-27 0 -50 23 -50 51v54h-203c-326 0 -326 -499 0 -499h253c28 0 50 -23 50 -51c0 -27 -22 -50 -50 -50z" />
    <glyph glyph-name="D" unicode="D" horiz-adv-x="758" 
d="M388 700c458 0 458 -700 0 -700h-294c-28 0 -50 23 -50 50c0 28 22 50 50 50h50v499h-50c-28 0 -50 23 -50 51c0 27 22 50 50 50h294zM387 100c328 0 327 499 1 499h-144v-499h143z" />
    <glyph glyph-name="E" unicode="E" horiz-adv-x="730" 
d="M652 198c28 0 50 -22 50 -50v-95c0 -20 -11 -36 -27 -45c-8 -5 -18 -8 -28 -8h-552c-28 0 -50 22 -50 50c0 27 22 50 50 50h46v201h-46c-28 0 -50 23 -50 51c0 27 22 50 50 50h46v198h-46c-28 0 -50 22 -50 50s22 50 50 50h532c27 0 50 -22 50 -50v-104
c0 -28 -23 -50 -50 -50c-28 0 -51 22 -51 50v54h-335v-198h228c27 0 50 -23 50 -50c0 -28 -23 -51 -50 -51h-228v-201h361v48c0 28 22 50 50 50z" />
    <glyph glyph-name="F" unicode="F" horiz-adv-x="714" 
d="M644 700c31 0 53 -25 53 -55v-100c0 -27 -23 -50 -51 -50c-27 0 -50 23 -50 50v54h-355v-195h227c28 0 50 -22 50 -50s-22 -50 -50 -50h-227v-204h46c28 0 50 -22 50 -50c0 -27 -22 -50 -50 -50h-192c-28 0 -51 23 -51 50c0 28 23 50 51 50h46v204h-46
c-28 0 -50 22 -50 50s22 50 50 50h46v195h-46c-28 0 -50 23 -50 51c0 27 22 50 50 50h549z" />
    <glyph glyph-name="G" unicode="G" horiz-adv-x="693" 
d="M622 0h-253c-458 0 -458 700 0 700h253c27 0 50 -23 50 -50v-104c0 -28 -23 -51 -50 -51c-28 0 -50 23 -50 51v53h-203c-326 0 -326 -498 0 -498h203v202h-156c-27 0 -50 22 -50 50s23 50 50 50h206c27 0 50 -22 50 -50v-303c0 -27 -23 -50 -50 -50z" />
    <glyph glyph-name="H" unicode="H" horiz-adv-x="824" 
d="M728 100c27 0 50 -22 50 -50c0 -27 -23 -50 -50 -50h-193c-27 0 -50 23 -50 50c0 28 23 50 50 50h40v202h-334v-202h46c28 0 50 -22 50 -50c0 -27 -22 -50 -50 -50h-192c-28 0 -50 23 -50 50c0 28 22 50 50 50h46v202h-46c-28 0 -50 22 -50 50s22 50 50 50h46v198h-46
c-28 0 -50 22 -50 50c0 27 22 50 50 50h192c28 0 50 -23 50 -50c0 -28 -22 -50 -50 -50h-46v-198h334v198h-46c-28 0 -50 22 -50 50c0 27 22 50 50 50h192c28 0 50 -23 50 -50c0 -28 -22 -50 -50 -50h-46v-198h47c28 0 50 -22 50 -50s-22 -50 -50 -50h-47v-202h53z" />
    <glyph glyph-name="I" unicode="I" horiz-adv-x="318" 
d="M255 100c27 0 50 -22 50 -50c0 -27 -23 -50 -50 -50h-193c-27 0 -50 23 -50 50c0 28 23 50 50 50h46v501h-46c-27 0 -50 22 -50 50c0 27 23 50 50 50h193c27 0 50 -23 50 -50c0 -28 -23 -50 -50 -50h-46v-501h46z" />
    <glyph glyph-name="J" unicode="J" horiz-adv-x="595" 
d="M502 700c28 0 50 -23 50 -50v-386c0 -359 -545 -359 -545 0c0 27 23 50 50 50c28 0 51 -23 51 -50c0 -227 344 -227 344 0v336h-122c-28 0 -50 22 -50 50c0 27 22 50 50 50h172z" />
    <glyph glyph-name="K" unicode="K" horiz-adv-x="805" 
d="M761 101c27 0 50 -23 50 -51c0 -27 -23 -50 -50 -50h-193c-27 0 -50 23 -50 50c0 25 18 45 41 50l-228 203h-90v-202h46c27 0 50 -23 50 -51c0 -27 -23 -50 -50 -50h-193c-27 0 -50 23 -50 50c0 28 23 51 50 51h46v202h-46c-27 0 -50 22 -50 50c0 27 23 50 50 50h46v199
h-46c-27 0 -50 22 -50 50c0 27 23 50 50 50h193c27 0 50 -23 50 -50c0 -28 -23 -50 -50 -50h-46v-199h94l175 199h-28c-28 0 -50 22 -50 50c0 27 22 50 50 50h192c28 0 50 -23 50 -50c0 -28 -22 -50 -50 -50h-31l-218 -249l283 -252h53z" />
    <glyph glyph-name="L" unicode="L" horiz-adv-x="713" 
d="M95 100h46v502h-46c-27 0 -50 22 -50 50c0 27 23 50 50 50h193c27 0 50 -23 50 -50c0 -28 -23 -50 -50 -50h-46v-502h356v53c0 28 23 50 50 50c28 0 50 -22 50 -50v-103c0 -27 -22 -50 -50 -50h-553c-27 0 -50 23 -50 50c0 28 23 50 50 50z" />
    <glyph glyph-name="M" unicode="M" horiz-adv-x="871" 
d="M781 100c27 0 50 -22 50 -50s-23 -50 -50 -50h-176c-27 0 -50 22 -50 50s23 50 50 50h36v396l-151 -203c-20 -26 -60 -27 -80 -2l-180 216v-407h37c28 0 50 -22 50 -50s-22 -50 -50 -50h-174c-28 0 -50 22 -50 50s22 50 50 50h37v496h-37c-28 0 -50 22 -50 50
s22 50 50 50h86c15 0 30 -6 39 -18l229 -275l203 271c11 14 24 22 42 22h89c27 0 50 -22 50 -50s-23 -50 -50 -50h-40v-496h40z" />
    <glyph glyph-name="N" unicode="N" horiz-adv-x="856" 
d="M758 700c28 0 50 -22 50 -50c0 -27 -22 -50 -50 -50h-42v-545c0 -50 -59 -71 -90 -32l-391 485v-408h42c28 0 50 -22 50 -50s-22 -50 -50 -50h-184c-28 0 -51 22 -51 50s23 50 51 50h42v500h-42c-28 0 -51 23 -51 50c0 28 23 50 51 50h89c18 0 32 -6 43 -20l391 -485v405
h-42c-28 0 -50 23 -50 50c0 28 22 50 50 50h184z" />
    <glyph glyph-name="O" unicode="O" horiz-adv-x="790" 
d="M393 -29c-499 0 -499 759 0 759s499 -759 0 -759zM393 630c-367 0 -367 -559 0 -559s367 559 0 559z" />
    <glyph glyph-name="P" unicode="P" horiz-adv-x="718" 
d="M503 700c262 0 262 -398 0 -398h-262v-201h46c28 0 50 -23 50 -51c0 -27 -22 -50 -50 -50h-192c-28 0 -50 23 -50 50c0 28 22 51 50 51h46v201h-46c-28 0 -50 23 -50 50c0 28 22 50 50 50h46v198h-46c-28 0 -50 22 -50 50s22 50 50 50h408zM502 402c132 0 131 198 1 198
h-262v-198h261z" />
    <glyph glyph-name="Q" unicode="Q" horiz-adv-x="806" 
d="M692 104l37 -37c19 -19 19 -51 0 -71c-10 -9 -23 -14 -36 -14c-12 0 -25 5 -35 14l-41 41c-61 -41 -134 -65 -212 -65c-210 0 -380 170 -380 380c0 209 170 379 380 379c209 0 379 -170 379 -379c0 -95 -35 -181 -92 -248zM405 72c50 0 98 14 139 38l-49 49
c-20 20 -20 52 0 71c19 20 51 20 71 0l55 -55c39 48 63 110 63 177c0 154 -125 279 -279 279s-280 -125 -280 -279s126 -280 280 -280z" />
    <glyph glyph-name="R" unicode="R" horiz-adv-x="797" 
d="M722 100c28 0 50 -23 50 -50c0 -28 -22 -50 -50 -50h-192c-28 0 -50 22 -50 50c0 27 22 50 50 50h9l-144 204h-153v-203h46c27 0 50 -23 50 -51c0 -27 -23 -50 -50 -50h-193c-27 0 -50 23 -50 50c0 28 23 51 50 51h46v203h-46c-27 0 -50 23 -50 50c0 28 23 50 50 50h46
v199h-46c-27 0 -50 22 -50 50s23 50 50 50h408c254 0 267 -380 15 -398l144 -205h60zM242 404h261c131 0 131 199 0 199h-261v-199z" />
    <glyph glyph-name="S" unicode="S" horiz-adv-x="782" 
d="M556 401c261 0 263 -401 0 -401h-317c-119 0 -206 79 -206 188c0 28 23 50 51 50c27 0 50 -22 50 -50c0 -61 53 -88 105 -88h317c131 0 129 200 0 200h-310c-262 0 -263 401 0 401h251c39 0 74 -8 103 -23c8 19 26 32 47 32c27 0 50 -23 50 -51v-138
c0 -27 -23 -50 -50 -50c-28 0 -51 23 -51 50c0 59 -51 80 -99 80h-251c-131 0 -130 -200 0 -200h310z" />
    <glyph glyph-name="T" unicode="T" horiz-adv-x="680" 
d="M617 700c28 0 50 -22 50 -50v-106c0 -28 -22 -50 -50 -50c-27 0 -50 22 -50 50v56h-180v-500h46c28 0 50 -23 50 -50c0 -28 -22 -50 -50 -50h-192c-28 0 -50 22 -50 50c0 27 22 50 50 50h46v500h-180v-56c0 -28 -23 -50 -50 -50c-28 0 -50 22 -50 50v106
c0 28 22 50 50 50h560z" />
    <glyph glyph-name="U" unicode="U" horiz-adv-x="862" 
d="M768 700c28 0 50 -22 50 -50c0 -27 -22 -50 -50 -50h-50v-400c0 -110 -90 -200 -200 -200h-176c-110 0 -200 90 -200 200v400h-43c-27 0 -50 23 -50 50c0 28 23 50 50 50h192c28 0 51 -22 51 -50c0 -27 -23 -50 -51 -50h-48v-400c0 -55 44 -100 99 -100h176
c55 0 99 45 99 100v400h-41c-28 0 -51 23 -51 50c0 28 23 50 51 50h192z" />
    <glyph glyph-name="V" unicode="V" horiz-adv-x="800" 
d="M747 700c27 0 50 -23 50 -51s-23 -52 -50 -52h-43l-253 -579c-18 -40 -76 -41 -94 -1l-270 580h-37c-27 0 -50 24 -50 52s23 51 50 51h162c27 0 50 -23 50 -51s-23 -52 -50 -52h-14l204 -438l192 438h-9c-28 0 -50 24 -50 52s22 51 50 51h162z" />
    <glyph glyph-name="W" unicode="W" horiz-adv-x="977" 
d="M922 700c28 0 50 -23 50 -51s-22 -51 -50 -51h-41l-166 -569c-15 -51 -82 -52 -97 1l-125 430l-126 -430c-15 -52 -82 -53 -97 -1l-171 569h-49c-28 0 -50 23 -50 51s22 51 50 51h174c29 0 51 -23 51 -51s-22 -51 -51 -51h-20l114 -379l126 433c15 52 82 51 97 1
l126 -431l109 376h-28c-29 0 -51 23 -51 51s22 51 51 51h174z" />
    <glyph glyph-name="X" unicode="X" horiz-adv-x="710" 
d="M652 101c28 0 50 -22 50 -51c0 -27 -22 -50 -50 -50h-73c-16 0 -30 8 -40 21l-183 248l-127 -168h14c28 0 50 -22 50 -51c0 -27 -22 -50 -50 -50h-187c-28 0 -50 23 -50 50c0 29 22 51 50 51h47l191 253l-181 245h-53c-27 0 -50 23 -50 51s23 50 50 50h78
c16 0 31 -7 40 -20l179 -242l121 161h-10c-28 0 -50 23 -50 51s22 50 50 50h187c27 0 50 -22 50 -50s-23 -51 -50 -51h-51l-185 -246l185 -252h48z" />
    <glyph glyph-name="Y" unicode="Y" horiz-adv-x="724" 
d="M671 700c27 0 50 -22 50 -50c0 -27 -23 -50 -50 -50h-32l-228 -287v-213h31c28 0 51 -22 51 -50c0 -27 -23 -50 -51 -50h-157c-27 0 -50 23 -50 50c0 28 23 50 50 50h26v209l-236 291h-26c-27 0 -50 23 -50 50c0 28 23 50 50 50h158c27 0 50 -22 50 -50
c0 -27 -23 -50 -50 -50h-2l154 -192l151 192c-26 2 -47 24 -47 50c0 28 23 50 51 50h157z" />
    <glyph glyph-name="Z" unicode="Z" horiz-adv-x="713" 
d="M647 204c27 0 50 -24 50 -51v-102c0 -28 -23 -51 -50 -51h-581c-46 0 -66 55 -34 88l188 197h-45c-28 0 -50 24 -50 51c0 29 22 51 50 51h144l202 211h-377v-57c0 -28 -23 -51 -50 -51c-28 0 -50 23 -50 51v108c0 29 22 51 50 51h543c48 0 69 -55 37 -88l-215 -225h26
c28 0 49 -22 49 -51c0 -27 -21 -51 -49 -51h-124l-177 -183h413v51c0 27 22 51 50 51z" />
    <glyph glyph-name="zero" unicode="0" horiz-adv-x="703" 
d="M656 505v-304c0 -113 -86 -204 -201 -204h-206c-108 0 -199 90 -199 199v309c0 110 89 200 199 200h207c110 0 200 -90 200 -200zM456 98c59 0 100 45 100 103v304c0 55 -45 100 -100 100h-207c-54 0 -99 -45 -99 -100v-308c0 -55 44 -99 99 -99h207z" />
    <glyph glyph-name="one" unicode="1" horiz-adv-x="315" 
d="M246 100c27 0 50 -23 50 -50c0 -28 -23 -50 -50 -50h-192c-28 0 -51 22 -51 50c0 27 23 50 51 50h46v501h-46c-28 0 -51 23 -51 50c0 28 23 50 51 50h96c27 0 50 -22 50 -50v-551h46z" />
    <glyph glyph-name="two" unicode="2" horiz-adv-x="705" 
d="M629 0h-560c-27 0 -50 22 -50 50v136c0 108 54 161 163 161h272c175 0 164 241 30 241h-233c-55 0 -100 -44 -100 -99c0 -28 -22 -50 -50 -50c-27 0 -50 22 -50 50v158c0 66 98 63 98 4c23 28 67 37 102 37h233c260 0 284 -441 -30 -441h-272c-54 0 -63 -12 -63 -68v-79
h460v27c0 66 100 66 100 0v-77c0 -28 -22 -50 -50 -50z" />
    <glyph glyph-name="three" unicode="3" horiz-adv-x="709" 
d="M612 360c50 -36 82 -94 82 -161c0 -110 -89 -199 -199 -199h-294c-85 0 -158 49 -181 131c-9 26 5 55 31 64s54 -5 63 -31c3 -6 25 -64 87 -64h294c55 0 99 45 99 99c0 55 -44 100 -99 100h-214c-28 0 -50 22 -50 50c0 27 22 50 50 50h187c55 0 99 44 99 99
s-44 99 -99 99h-331v-54c0 -28 -22 -51 -50 -51s-50 23 -50 51v104c0 28 22 50 50 50h381c110 0 200 -89 200 -199c0 -53 -22 -102 -56 -138z" />
    <glyph glyph-name="four" unicode="4" horiz-adv-x="677" 
d="M611 195h-46v-95h46c28 0 50 -22 50 -50c0 -27 -22 -50 -50 -50h-192c-28 0 -50 23 -50 50c0 28 22 50 50 50h46v95h-405c-15 0 -29 7 -39 19c-9 12 -13 28 -9 43l81 345h-35c-27 0 -50 22 -50 50c0 27 23 50 50 50h86c53 0 69 -29 57 -80l-77 -327h341v307h-46
c-28 0 -50 22 -50 50c0 27 22 50 50 50h192c28 0 50 -23 50 -50c0 -28 -22 -50 -50 -50h-46v-307h46c28 0 50 -22 50 -50c0 -27 -22 -50 -50 -50z" />
    <glyph glyph-name="five" unicode="5" horiz-adv-x="706" 
d="M486 403c110 0 199 -93 199 -203s-89 -200 -199 -200h-281c-79 0 -159 53 -181 131c-21 63 73 95 95 33c2 -6 25 -64 86 -64h281c55 0 99 45 99 100c0 54 -44 103 -99 103h-385c-27 0 -50 22 -50 50v297c0 28 23 50 50 50h484c28 0 50 -22 50 -50v-104
c0 -28 -22 -51 -50 -51s-50 23 -50 51v54h-384v-197h335z" />
    <glyph glyph-name="six" unicode="6" horiz-adv-x="690" 
d="M471 398c110 0 199 -90 199 -201c0 -110 -89 -199 -199 -199h-243c-116 0 -206 87 -206 204v297c0 160 120 200 249 200h197c51 0 100 -19 137 -55c20 -19 21 -51 2 -71s-51 -20 -71 -1c-18 17 -43 27 -68 27h-197c-82 0 -149 -9 -149 -107v-143c25 35 76 49 117 49h232z
M471 98c54 0 99 44 99 99c0 56 -45 101 -99 101h-232c-152 0 -154 -200 0 -200h232z" />
    <glyph glyph-name="seven" unicode="7" horiz-adv-x="660" 
d="M595 699c47 0 68 -50 39 -84l-192 -227h53c28 0 50 -22 50 -50c0 -27 -22 -50 -50 -50h-138l-231 -275c-18 -21 -49 -24 -70 -6s-24 49 -6 70l175 211h-42c-27 0 -50 23 -50 50c0 28 23 50 50 50h127l179 211h-379v-56c0 -28 -23 -50 -50 -50c-28 0 -51 22 -51 50v106
c0 28 23 50 51 50h535z" />
    <glyph glyph-name="eight" unicode="8" horiz-adv-x="684" 
d="M539 368c27 -10 52 -25 72 -46c34 -34 55 -82 55 -134c0 -110 -87 -188 -195 -188h-267c-104 0 -189 84 -189 188c0 52 21 100 56 134c19 20 42 35 68 44c-4 4 -8 7 -11 11c-35 35 -56 82 -56 134c0 104 85 189 189 189h154c104 0 189 -85 189 -189
c0 -52 -21 -99 -56 -134zM411 601h-144c-55 0 -100 -44 -100 -100c0 -55 44 -100 99 -100h145c54 0 99 45 99 100s-45 100 -99 100zM114 200c0 -55 44 -99 99 -99h249c60 0 106 43 106 100c0 55 -44 100 -99 100h-256c-55 0 -99 -46 -99 -101z" />
    <glyph glyph-name="nine" unicode="9" horiz-adv-x="677" 
d="M450 701c114 0 206 -87 206 -202v-299c0 -70 -31 -137 -95 -170c-49 -30 -99 -30 -154 -30h-190c-81 0 -153 48 -184 122c-11 25 1 54 27 65c25 11 54 -1 65 -26c16 -37 52 -61 92 -61h190c45 0 77 5 99 14c44 25 50 53 50 101v115c-31 -18 -68 -29 -106 -29h-236
c-110 0 -199 90 -199 201c0 110 89 199 199 199h236zM450 401c139 0 140 200 0 200h-236c-55 0 -99 -45 -99 -99c0 -56 44 -101 99 -101h236z" />
    <glyph glyph-name="zcaron" unicode="&#x17e;" horiz-adv-x="690" 
d="M334 754l-73 48c-53 40 -2 100 49 73l60 -41l62 43c50 29 103 -38 51 -72l-79 -52c-28 -18 -45 -13 -70 1zM636 204c27 0 50 -24 50 -51v-102c0 -28 -23 -51 -50 -51h-581c-46 0 -66 55 -34 88l188 197h-45c-28 0 -50 24 -50 51c0 29 22 51 50 51h144l202 211h-377v-57
c0 -28 -23 -51 -50 -51c-28 0 -50 23 -50 51v108c0 29 22 51 50 51h543c48 0 69 -55 37 -88l-215 -225h26c28 0 49 -22 49 -51c0 -27 -21 -51 -49 -51h-124l-177 -183h413v51c0 27 22 51 50 51z" />
    <glyph glyph-name="_0004" horiz-adv-x="0" 
 />
    <glyph glyph-name="Scaron" unicode="&#x160;" horiz-adv-x="779" 
d="M556 401c261 0 263 -401 0 -401h-317c-119 0 -206 79 -206 188c0 28 23 50 51 50c27 0 50 -22 50 -50c0 -61 53 -88 105 -88h317c131 0 129 200 0 200h-310c-262 0 -263 401 0 401h251c39 0 74 -8 103 -23c8 19 26 32 47 32c27 0 50 -23 50 -51v-138
c0 -27 -23 -50 -50 -50c-28 0 -51 23 -51 50c0 59 -51 80 -99 80h-251c-131 0 -130 -200 0 -200h310zM362 753l-77 51c-55 42 -2 105 52 76l63 -43l66 45c53 31 109 -40 54 -75l-84 -55c-29 -19 -47 -14 -74 1z" />
    <glyph glyph-name="a" unicode="a" 
d="M754 101c28 0 50 -23 50 -51c0 -27 -22 -50 -50 -50h-180c-27 0 -50 23 -50 50c0 28 23 51 50 51h22l-53 117h-282l-53 -117h22c27 0 50 -23 50 -51c0 -27 -23 -50 -50 -50h-180c-28 0 -50 23 -50 50c0 28 22 51 50 51h48l53 117h-5c-28 0 -50 22 -50 50
c0 27 22 50 50 50h50l127 285h-11c-28 0 -50 22 -50 50c0 27 22 50 50 50h180c28 0 50 -23 50 -50c0 -28 -22 -50 -50 -50h-11l127 -285h50c28 0 50 -23 50 -50c0 -28 -22 -50 -50 -50h-5l53 -117h48zM306 318h192l-96 217z" />
    <glyph glyph-name="b" unicode="b" horiz-adv-x="748" 
d="M623 359c60 -32 100 -90 100 -159c0 -110 -90 -200 -200 -200h-428c-27 0 -50 23 -50 50c0 28 23 51 50 51h46v198h-46c-27 0 -50 22 -50 50s23 50 50 50h46v201h-46c-27 0 -50 22 -50 50c0 27 23 50 50 50h401c110 0 200 -92 200 -202c0 -55 -26 -109 -73 -139zM242 600
v-201h254c55 0 100 45 100 99c0 55 -45 102 -100 102h-254zM522 101c55 0 100 43 100 99c0 54 -44 99 -99 99h-27h-254v-198h280z" />
    <glyph glyph-name="c" unicode="c" horiz-adv-x="690" 
d="M615 0h-253c-458 0 -458 700 0 700h253c28 0 50 -23 50 -50v-104c0 -28 -22 -51 -50 -51c-27 0 -50 23 -50 51v54h-203c-326 0 -326 -499 0 -499h253c28 0 50 -23 50 -51c0 -27 -22 -50 -50 -50z" />
    <glyph glyph-name="d" unicode="d" horiz-adv-x="758" 
d="M388 700c458 0 458 -700 0 -700h-294c-28 0 -50 23 -50 50c0 28 22 50 50 50h50v499h-50c-28 0 -50 23 -50 51c0 27 22 50 50 50h294zM387 100c328 0 327 499 1 499h-144v-499h143z" />
    <glyph glyph-name="e" unicode="e" horiz-adv-x="730" 
d="M652 198c28 0 50 -22 50 -50v-95c0 -20 -11 -36 -27 -45c-8 -5 -18 -8 -28 -8h-552c-28 0 -50 22 -50 50c0 27 22 50 50 50h46v201h-46c-28 0 -50 23 -50 51c0 27 22 50 50 50h46v198h-46c-28 0 -50 22 -50 50s22 50 50 50h532c27 0 50 -22 50 -50v-104
c0 -28 -23 -50 -50 -50c-28 0 -51 22 -51 50v54h-335v-198h228c27 0 50 -23 50 -50c0 -28 -23 -51 -50 -51h-228v-201h361v48c0 28 22 50 50 50z" />
    <glyph glyph-name="f" unicode="f" horiz-adv-x="714" 
d="M644 701c31 0 53 -25 53 -55v-100c0 -27 -23 -50 -51 -50c-27 0 -50 23 -50 50v54h-355v-195h227c28 0 50 -22 50 -50s-22 -50 -50 -50h-227v-205h46c28 0 50 -22 50 -50c0 -27 -22 -50 -50 -50h-192c-28 0 -51 23 -51 50c0 28 23 50 51 50h46v205h-46
c-28 0 -50 22 -50 50s22 50 50 50h46v195h-46c-28 0 -50 23 -50 51c0 27 22 50 50 50h549z" />
    <glyph glyph-name="g" unicode="g" horiz-adv-x="692" 
d="M622 0h-253c-458 0 -458 700 0 700h253c27 0 50 -23 50 -50v-104c0 -28 -23 -51 -50 -51c-28 0 -50 23 -50 51v53h-203c-326 0 -326 -498 0 -498h203v202h-156c-27 0 -50 22 -50 50s23 50 50 50h206c27 0 50 -22 50 -50v-303c0 -27 -23 -50 -50 -50z" />
    <glyph glyph-name="h" unicode="h" horiz-adv-x="824" 
d="M728 100c27 0 50 -22 50 -50c0 -27 -23 -50 -50 -50h-193c-27 0 -50 23 -50 50c0 28 23 50 50 50h40v202h-334v-202h46c28 0 50 -22 50 -50c0 -27 -22 -50 -50 -50h-192c-28 0 -50 23 -50 50c0 28 22 50 50 50h46v202h-46c-28 0 -50 22 -50 50s22 50 50 50h46v198h-46
c-28 0 -50 22 -50 50c0 27 22 50 50 50h192c28 0 50 -23 50 -50c0 -28 -22 -50 -50 -50h-46v-198h334v198h-46c-28 0 -50 22 -50 50c0 27 22 50 50 50h192c28 0 50 -23 50 -50c0 -28 -22 -50 -50 -50h-46v-198h47c28 0 50 -22 50 -50s-22 -50 -50 -50h-47v-202h53z" />
    <glyph glyph-name="i" unicode="i" horiz-adv-x="321" 
d="M258 100c27 0 50 -22 50 -50c0 -27 -23 -50 -50 -50h-193c-27 0 -50 23 -50 50c0 28 23 50 50 50h46v501h-46c-27 0 -50 22 -50 50c0 27 23 50 50 50h193c27 0 50 -23 50 -50c0 -28 -23 -50 -50 -50h-46v-501h46z" />
    <glyph glyph-name="j" unicode="j" horiz-adv-x="595" 
d="M502 700c28 0 50 -23 50 -50v-386c0 -359 -545 -359 -545 0c0 27 23 50 50 50c28 0 51 -23 51 -50c0 -227 344 -227 344 0v336h-122c-28 0 -50 22 -50 50c0 27 22 50 50 50h172z" />
    <glyph glyph-name="k" unicode="k" horiz-adv-x="805" 
d="M761 101c27 0 50 -23 50 -51c0 -27 -23 -50 -50 -50h-193c-27 0 -50 23 -50 50c0 25 18 45 41 50l-228 203h-90v-202h46c27 0 50 -23 50 -51c0 -27 -23 -50 -50 -50h-193c-27 0 -50 23 -50 50c0 28 23 51 50 51h46v202h-46c-27 0 -50 22 -50 50c0 27 23 50 50 50h46v199
h-46c-27 0 -50 22 -50 50c0 27 23 50 50 50h193c27 0 50 -23 50 -50c0 -28 -23 -50 -50 -50h-46v-199h94l175 199h-28c-28 0 -50 22 -50 50c0 27 22 50 50 50h192c28 0 50 -23 50 -50c0 -28 -22 -50 -50 -50h-31l-218 -249l283 -252h53z" />
    <glyph glyph-name="l" unicode="l" horiz-adv-x="713" 
d="M95 100h46v502h-46c-27 0 -50 22 -50 50c0 27 23 50 50 50h193c27 0 50 -23 50 -50c0 -28 -23 -50 -50 -50h-46v-502h356v53c0 28 23 50 50 50c28 0 50 -22 50 -50v-103c0 -27 -22 -50 -50 -50h-553c-27 0 -50 23 -50 50c0 28 23 50 50 50z" />
    <glyph glyph-name="m" unicode="m" horiz-adv-x="871" 
d="M781 100c27 0 50 -22 50 -50s-23 -50 -50 -50h-176c-27 0 -50 22 -50 50s23 50 50 50h36v396l-151 -203c-20 -26 -60 -27 -80 -2l-180 216v-407h37c28 0 50 -22 50 -50s-22 -50 -50 -50h-174c-28 0 -50 22 -50 50s22 50 50 50h37v496h-37c-28 0 -50 22 -50 50
s22 50 50 50h86c15 0 30 -6 39 -18l229 -275l203 271c11 14 24 22 42 22h89c27 0 50 -22 50 -50s-23 -50 -50 -50h-40v-496h40z" />
    <glyph glyph-name="n" unicode="n" horiz-adv-x="856" 
d="M758 700c28 0 50 -22 50 -50c0 -27 -22 -50 -50 -50h-42v-545c0 -50 -59 -71 -90 -32l-391 485v-408h42c28 0 50 -22 50 -50s-22 -50 -50 -50h-184c-28 0 -51 22 -51 50s23 50 51 50h42v500h-42c-28 0 -51 23 -51 50c0 28 23 50 51 50h89c18 0 32 -6 43 -20l391 -485v405
h-42c-28 0 -50 23 -50 50c0 28 22 50 50 50h184z" />
    <glyph glyph-name="o" unicode="o" horiz-adv-x="790" 
d="M393 -29c-499 0 -499 759 0 759s499 -759 0 -759zM393 626c-362 0 -362 -551 0 -551s362 551 0 551z" />
    <glyph glyph-name="p" unicode="p" horiz-adv-x="718" 
d="M503 703c262 0 262 -399 0 -399h-262v-203h46c28 0 50 -23 50 -51c0 -27 -22 -50 -50 -50h-192c-28 0 -50 23 -50 50c0 28 22 51 50 51h46v203h-46c-28 0 -50 23 -50 50c0 28 22 50 50 50h46v199h-46c-28 0 -50 22 -50 50s22 50 50 50h408zM502 404c132 0 131 199 1 199
h-262v-199h261z" />
    <glyph glyph-name="q" unicode="q" horiz-adv-x="806" 
d="M692 104l37 -37c19 -19 19 -51 0 -71c-10 -9 -23 -14 -36 -14c-12 0 -25 5 -35 14l-41 41c-61 -41 -134 -65 -212 -65c-210 0 -380 170 -380 380c0 209 170 379 380 379c209 0 379 -170 379 -379c0 -95 -35 -181 -92 -248zM405 72c50 0 98 14 139 38l-49 49
c-20 20 -20 52 0 71c19 20 51 20 71 0l55 -55c39 48 63 110 63 177c0 154 -125 279 -279 279s-280 -125 -280 -279s126 -280 280 -280z" />
    <glyph glyph-name="r" unicode="r" horiz-adv-x="797" 
d="M722 100c28 0 50 -23 50 -50c0 -28 -22 -50 -50 -50h-192c-28 0 -50 22 -50 50c0 27 22 50 50 50h9l-144 204h-153v-203h46c27 0 50 -23 50 -51c0 -27 -23 -50 -50 -50h-193c-27 0 -50 23 -50 50c0 28 23 51 50 51h46v203h-46c-27 0 -50 23 -50 50c0 28 23 50 50 50h46
v199h-46c-27 0 -50 22 -50 50s23 50 50 50h408c254 0 267 -380 15 -398l144 -205h60zM242 404h261c131 0 131 199 0 199h-261v-199z" />
    <glyph glyph-name="s" unicode="s" horiz-adv-x="782" 
d="M556 401c261 0 263 -401 0 -401h-317c-119 0 -206 79 -206 188c0 28 23 50 51 50c27 0 50 -22 50 -50c0 -61 53 -88 105 -88h317c131 0 129 200 0 200h-310c-262 0 -263 401 0 401h251c39 0 74 -8 103 -23c8 19 26 32 47 32c27 0 50 -23 50 -51v-138
c0 -27 -23 -50 -50 -50c-28 0 -51 23 -51 50c0 59 -51 80 -99 80h-251c-131 0 -130 -200 0 -200h310z" />
    <glyph glyph-name="t" unicode="t" horiz-adv-x="680" 
d="M617 700c28 0 50 -22 50 -50v-106c0 -28 -22 -50 -50 -50c-27 0 -50 22 -50 50v56h-180v-500h46c28 0 50 -23 50 -50c0 -28 -22 -50 -50 -50h-192c-28 0 -50 22 -50 50c0 27 22 50 50 50h46v500h-180v-56c0 -28 -23 -50 -50 -50c-28 0 -50 22 -50 50v106
c0 28 22 50 50 50h560z" />
    <glyph glyph-name="u" unicode="u" horiz-adv-x="862" 
d="M768 700c28 0 50 -22 50 -50c0 -27 -22 -50 -50 -50h-50v-400c0 -110 -90 -200 -200 -200h-176c-110 0 -200 90 -200 200v400h-43c-27 0 -50 23 -50 50c0 28 23 50 50 50h192c28 0 51 -22 51 -50c0 -27 -23 -50 -51 -50h-48v-400c0 -55 44 -100 99 -100h176
c55 0 99 45 99 100v400h-41c-28 0 -51 23 -51 50c0 28 23 50 51 50h192z" />
    <glyph glyph-name="v" unicode="v" horiz-adv-x="800" 
d="M747 700c27 0 50 -23 50 -51s-23 -52 -50 -52h-43l-253 -579c-18 -40 -76 -41 -94 -1l-270 580h-37c-27 0 -50 24 -50 52s23 51 50 51h162c27 0 50 -23 50 -51s-23 -52 -50 -52h-14l204 -438l192 438h-9c-28 0 -50 24 -50 52s22 51 50 51h162z" />
    <glyph glyph-name="w" unicode="w" horiz-adv-x="977" 
d="M922 700c28 0 50 -23 50 -51s-22 -51 -50 -51h-41l-166 -569c-15 -51 -82 -52 -97 1l-125 430l-126 -430c-15 -52 -82 -53 -97 -1l-171 569h-49c-28 0 -50 23 -50 51s22 51 50 51h174c29 0 51 -23 51 -51s-22 -51 -51 -51h-20l114 -379l126 433c15 52 82 51 97 1
l126 -431l109 376h-28c-29 0 -51 23 -51 51s22 51 51 51h174z" />
    <glyph glyph-name="x" unicode="x" horiz-adv-x="710" 
d="M652 101c28 0 50 -22 50 -51c0 -27 -22 -50 -50 -50h-73c-16 0 -30 8 -40 21l-183 248l-127 -168h14c28 0 50 -22 50 -51c0 -27 -22 -50 -50 -50h-187c-28 0 -50 23 -50 50c0 29 22 51 50 51h47l191 253l-181 245h-53c-27 0 -50 23 -50 51s23 50 50 50h78
c16 0 31 -7 40 -20l179 -242l121 161h-10c-28 0 -50 23 -50 51s22 50 50 50h187c27 0 50 -22 50 -50s-23 -51 -50 -51h-51l-185 -246l185 -252h48z" />
    <glyph glyph-name="y" unicode="y" horiz-adv-x="724" 
d="M671 700c27 0 50 -22 50 -50c0 -27 -23 -50 -50 -50h-32l-228 -287v-213h31c28 0 51 -22 51 -50c0 -27 -23 -50 -51 -50h-157c-27 0 -50 23 -50 50c0 28 23 50 50 50h26v209l-236 291h-26c-27 0 -50 23 -50 50c0 28 23 50 50 50h158c27 0 50 -22 50 -50
c0 -27 -23 -50 -50 -50h-2l154 -192l151 192c-26 2 -47 24 -47 50c0 28 23 50 51 50h157z" />
    <glyph glyph-name="z" unicode="z" horiz-adv-x="714" 
d="M647 204c27 0 50 -24 50 -51v-102c0 -28 -23 -51 -50 -51h-581c-46 0 -66 55 -34 88l188 197h-45c-28 0 -50 24 -50 51c0 29 22 51 50 51h144l202 211h-377v-57c0 -28 -23 -51 -50 -51c-28 0 -50 23 -50 51v108c0 29 22 51 50 51h543c48 0 69 -55 37 -88l-215 -225h26
c28 0 49 -22 49 -51c0 -27 -21 -51 -49 -51h-124l-177 -183h413v51c0 27 22 51 50 51z" />
    <glyph glyph-name="fi" unicode="&#xfb01;" horiz-adv-x="1061" 
d="M653 701c31 0 53 -25 53 -55v-100c0 -27 -23 -50 -51 -50c-27 0 -50 23 -50 50v54h-355v-195h227c28 0 50 -22 50 -50s-22 -50 -50 -50h-227v-205h46c28 0 50 -22 50 -50c0 -27 -22 -50 -50 -50h-192c-28 0 -51 23 -51 50c0 28 23 50 51 50h46v205h-46
c-28 0 -50 22 -50 50s22 50 50 50h46v195h-46c-28 0 -50 23 -50 51c0 27 22 50 50 50h549zM995 100c27 0 50 -22 50 -50c0 -27 -23 -50 -50 -50h-193c-27 0 -50 23 -50 50c0 28 23 50 50 50h46v501h-46c-27 0 -50 22 -50 50c0 27 23 50 50 50h193c27 0 50 -23 50 -50
c0 -28 -23 -50 -50 -50h-46v-501h46z" />
    <glyph glyph-name="fl" unicode="&#xfb02;" horiz-adv-x="1439" 
d="M644 701c31 0 53 -25 53 -55v-100c0 -27 -23 -50 -51 -50c-27 0 -50 23 -50 50v54h-355v-195h227c28 0 50 -22 50 -50s-22 -50 -50 -50h-227v-205h46c28 0 50 -22 50 -50c0 -27 -22 -50 -50 -50h-192c-28 0 -51 23 -51 50c0 28 23 50 51 50h46v205h-46
c-28 0 -50 22 -50 50s22 50 50 50h46v195h-46c-28 0 -50 23 -50 51c0 27 22 50 50 50h549zM809 100h46v502h-46c-27 0 -50 22 -50 50c0 27 23 50 50 50h193c27 0 50 -23 50 -50c0 -28 -23 -50 -50 -50h-46v-502h356v53c0 28 23 50 50 50c28 0 50 -22 50 -50v-103
c0 -27 -22 -50 -50 -50h-553c-27 0 -50 23 -50 50c0 28 23 50 50 50z" />
    <glyph glyph-name="Lslash" unicode="&#x141;" horiz-adv-x="713" 
d="M95 100h46v169l-40 -18c-62 -25 -95 60 -39 87l79 36v228h-46c-27 0 -50 22 -50 50c0 27 23 50 50 50h193c27 0 50 -23 50 -50c0 -28 -23 -50 -50 -50h-46v-181l86 40c54 28 97 -60 41 -88l-127 -58v-215h356v53c0 28 23 50 50 50c28 0 50 -22 50 -50v-103
c0 -27 -22 -50 -50 -50h-553c-27 0 -50 23 -50 50c0 28 23 50 50 50z" />
    <glyph glyph-name="Zcaron" unicode="&#x17d;" horiz-adv-x="701" 
d="M647 204c27 0 50 -24 50 -51v-102c0 -28 -23 -51 -50 -51h-581c-46 0 -66 55 -34 88l188 197h-45c-28 0 -50 24 -50 51c0 29 22 51 50 51h144l202 211h-377v-57c0 -28 -23 -51 -50 -51c-28 0 -50 23 -50 51v108c0 29 22 51 50 51h543c48 0 69 -55 37 -88l-215 -225h26
c28 0 49 -22 49 -51c0 -27 -21 -51 -49 -51h-124l-177 -183h413v51c0 27 22 51 50 51zM333 756l-77 51c-55 42 -2 105 52 76l63 -43l66 45c53 31 109 -40 54 -75l-84 -55c-29 -19 -47 -14 -74 1z" />
    <glyph glyph-name="ccedilla" unicode="&#xe7;" horiz-adv-x="690" 
d="M615 0h-173l-9 -34c62 -11 98 -64 84 -123c-29 -113 -210 -102 -256 -15c-22 41 43 87 71 42c20 -32 92 -39 98 -3c3 20 -23 43 -72 26l-31 30l24 77c-447 12 -443 700 11 700h253c28 0 50 -23 50 -50v-104c0 -28 -22 -51 -50 -51c-27 0 -50 23 -50 51v54h-203
c-326 0 -326 -499 0 -499h253c28 0 50 -23 50 -51c0 -27 -22 -50 -50 -50z" />
    <glyph glyph-name="oslash" unicode="&#xf8;" horiz-adv-x="790" 
d="M393 -29c-51 0 -96 8 -136 22l-42 -76c-12 -24 -42 -36 -67 -24c-24 11 -37 42 -24 66l44 80c-257 186 -182 691 225 691c54 0 101 -10 143 -25l37 66c11 25 42 36 67 24s36 -41 24 -66l-40 -72c249 -190 172 -686 -231 -686zM393 630c-294 0 -353 -359 -176 -502
l270 488c-28 9 -60 14 -94 14zM393 71c290 0 350 350 181 496l-268 -484c26 -8 55 -12 87 -12z" />
    <glyph glyph-name="OE" unicode="&#x152;" horiz-adv-x="1054" 
d="M393 -29c-499 0 -499 759 0 759c60 0 112 -11 158 -30h400c27 0 50 -22 50 -50v-104c0 -28 -23 -50 -50 -50c-28 0 -51 22 -51 50v54h-298v-198h191c27 0 50 -23 50 -50c0 -28 -23 -51 -50 -51h-191v-201h324v48c0 28 22 50 50 50s50 -22 50 -50v-95
c0 -20 -11 -36 -27 -45c-8 -5 -18 -8 -28 -8h-423c-45 -18 -97 -29 -155 -29zM393 633c-367 0 -367 -565 0 -565c43 0 82 8 115 22v521c-33 14 -72 22 -115 22z" />
    <glyph glyph-name="scaron" unicode="&#x161;" horiz-adv-x="782" 
d="M556 401c261 0 263 -401 0 -401h-317c-119 0 -206 79 -206 188c0 28 23 50 51 50c27 0 50 -22 50 -50c0 -61 53 -88 105 -88h317c131 0 129 200 0 200h-310c-262 0 -263 401 0 401h251c39 0 74 -8 103 -23c8 19 26 32 47 32c27 0 50 -23 50 -51v-138
c0 -27 -23 -50 -50 -50c-28 0 -51 23 -51 50c0 59 -51 80 -99 80h-251c-131 0 -130 -200 0 -200h310zM356 759l-77 51c-55 42 -2 105 52 76l63 -43l66 45c53 31 109 -40 54 -75l-84 -55c-29 -19 -47 -14 -74 1z" />
    <glyph glyph-name="Ydieresis" unicode="&#x178;" horiz-adv-x="724" 
d="M671 700c27 0 50 -22 50 -50c0 -27 -23 -50 -50 -50h-32l-228 -287v-213h31c28 0 51 -22 51 -50c0 -27 -23 -50 -51 -50h-157c-27 0 -50 23 -50 50c0 28 23 50 50 50h26v209l-236 291h-26c-27 0 -50 23 -50 50c0 28 23 50 50 50h158c27 0 50 -22 50 -50
c0 -27 -23 -50 -50 -50h-2l154 -192l151 192c-26 2 -47 24 -47 50c0 28 23 50 51 50h157zM168 816c0 33 25 59 58 59c32 0 57 -26 57 -58s-24 -59 -57 -59c-32 0 -58 26 -58 58zM440 816c0 33 25 59 58 59c32 0 57 -26 57 -58s-24 -59 -57 -59c-32 0 -58 26 -58 58z" />
    <glyph glyph-name="Aring" unicode="&#xc5;" 
d="M754 101c28 0 50 -23 50 -51c0 -27 -22 -50 -50 -50h-180c-27 0 -50 23 -50 50c0 28 23 51 50 51h22l-53 117h-282l-53 -117h22c27 0 50 -23 50 -51c0 -27 -23 -50 -50 -50h-180c-28 0 -50 23 -50 50c0 28 22 51 50 51h48l53 117h-5c-28 0 -50 22 -50 50
c0 27 22 50 50 50h50l127 285h-11c-28 0 -50 22 -50 50c0 27 22 50 50 50h180c28 0 50 -23 50 -50c0 -28 -22 -50 -50 -50h-11l127 -285h50c28 0 50 -23 50 -50c0 -28 -22 -50 -50 -50h-5l53 -117h48zM306 318h192l-96 217zM285 838c0 143 236 143 236 0
c0 -141 -236 -141 -236 0zM401 878c-53 0 -56 -79 0 -79c59 0 59 79 0 79z" />
    <glyph glyph-name="Adieresis" unicode="&#xc4;" 
d="M754 101c28 0 50 -23 50 -51c0 -27 -22 -50 -50 -50h-180c-27 0 -50 23 -50 50c0 28 23 51 50 51h22l-53 117h-282l-53 -117h22c27 0 50 -23 50 -51c0 -27 -23 -50 -50 -50h-180c-28 0 -50 23 -50 50c0 28 22 51 50 51h48l53 117h-5c-28 0 -50 22 -50 50
c0 27 22 50 50 50h50l127 285h-11c-28 0 -50 22 -50 50c0 27 22 50 50 50h180c28 0 50 -23 50 -50c0 -28 -22 -50 -50 -50h-11l127 -285h50c28 0 50 -23 50 -50c0 -28 -22 -50 -50 -50h-5l53 -117h48zM306 318h192l-96 217zM208 821c0 33 25 59 58 59c32 0 57 -26 57 -58
s-24 -59 -57 -59c-32 0 -58 26 -58 58zM480 821c0 33 25 59 58 59c32 0 57 -26 57 -58s-24 -59 -57 -59c-32 0 -58 26 -58 58z" />
    <glyph glyph-name="Atilde" unicode="&#xc3;" 
d="M754 101c28 0 50 -23 50 -51c0 -27 -22 -50 -50 -50h-180c-27 0 -50 23 -50 50c0 28 23 51 50 51h22l-53 117h-282l-53 -117h22c27 0 50 -23 50 -51c0 -27 -23 -50 -50 -50h-180c-28 0 -50 23 -50 50c0 28 22 51 50 51h48l53 117h-5c-28 0 -50 22 -50 50
c0 27 22 50 50 50h50l127 285h-11c-28 0 -50 22 -50 50c0 27 22 50 50 50h180c28 0 50 -23 50 -50c0 -28 -22 -50 -50 -50h-11l127 -285h50c28 0 50 -23 50 -50c0 -28 -22 -50 -50 -50h-5l53 -117h48zM306 318h192l-96 217zM255 825c18 42 58 62 95 62c61 0 104 -70 131 -34
c35 47 104 15 73 -44c-23 -38 -62 -57 -98 -57c-56 0 -96 76 -127 33c-24 -39 -95 -9 -74 40z" />
    <glyph glyph-name="Acircumflex" unicode="&#xc2;" 
d="M754 101c28 0 50 -23 50 -51c0 -27 -22 -50 -50 -50h-180c-27 0 -50 23 -50 50c0 28 23 51 50 51h22l-53 117h-282l-53 -117h22c27 0 50 -23 50 -51c0 -27 -23 -50 -50 -50h-180c-28 0 -50 23 -50 50c0 28 22 51 50 51h48l53 117h-5c-28 0 -50 22 -50 50
c0 27 22 50 50 50h50l127 285h-11c-28 0 -50 22 -50 50c0 27 22 50 50 50h180c28 0 50 -23 50 -50c0 -28 -22 -50 -50 -50h-11l127 -285h50c28 0 50 -23 50 -50c0 -28 -22 -50 -50 -50h-5l53 -117h48zM306 318h192l-96 217zM441 889l77 -51c55 -42 2 -105 -52 -76l-63 43
l-66 -45c-53 -31 -109 40 -54 75l84 55c29 19 47 14 74 -1z" />
    <glyph glyph-name="Aacute" unicode="&#xc1;" 
d="M754 101c28 0 50 -23 50 -51c0 -27 -22 -50 -50 -50h-180c-27 0 -50 23 -50 50c0 28 23 51 50 51h22l-53 117h-282l-53 -117h22c27 0 50 -23 50 -51c0 -27 -23 -50 -50 -50h-180c-28 0 -50 23 -50 50c0 28 22 51 50 51h48l53 117h-5c-28 0 -50 22 -50 50
c0 27 22 50 50 50h50l127 285h-11c-28 0 -50 22 -50 50c0 27 22 50 50 50h180c28 0 50 -23 50 -50c0 -28 -22 -50 -50 -50h-11l127 -285h50c28 0 50 -23 50 -50c0 -28 -22 -50 -50 -50h-5l53 -117h48zM306 318h192l-96 217zM373 834l64 70c48 48 117 -24 70 -70l-66 -62
c-43 -39 -107 25 -68 62z" />
    <glyph glyph-name="Agrave" unicode="&#xc0;" 
d="M754 101c28 0 50 -23 50 -51c0 -27 -22 -50 -50 -50h-180c-27 0 -50 23 -50 50c0 28 23 51 50 51h22l-53 117h-282l-53 -117h22c27 0 50 -23 50 -51c0 -27 -23 -50 -50 -50h-180c-28 0 -50 23 -50 50c0 28 22 51 50 51h48l53 117h-5c-28 0 -50 22 -50 50
c0 27 22 50 50 50h50l127 285h-11c-28 0 -50 22 -50 50c0 27 22 50 50 50h180c28 0 50 -23 50 -50c0 -28 -22 -50 -50 -50h-11l127 -285h50c28 0 50 -23 50 -50c0 -28 -22 -50 -50 -50h-5l53 -117h48zM306 318h192l-96 217zM371 907l64 -70c39 -37 -25 -101 -68 -62l-66 62
c-47 46 22 118 70 70z" />
    <glyph glyph-name="AE" unicode="&#xc6;" horiz-adv-x="1062" 
d="M984 198c28 0 50 -22 50 -50v-95c0 -28 -22 -53 -55 -53h-490c-28 0 -50 22 -50 50c0 27 22 50 50 50h46v161l-226 1l-101 -161h34c27 0 50 -23 50 -51c0 -27 -23 -50 -50 -50h-192c-28 0 -50 23 -50 50c0 28 22 51 50 51h48l102 161h-6c-28 0 -50 21 -50 49
c0 27 22 50 50 50h62l148 239h-11c-28 0 -50 22 -50 50c0 27 22 50 50 50h566c27 0 50 -22 50 -50v-104c0 -28 -23 -50 -50 -50c-28 0 -51 22 -51 50v54h-273v-239h166c27 0 50 -23 50 -50c0 -28 -23 -50 -50 -50h-166v-161h299v48c0 28 22 50 50 50zM370 361h165v239h-17z
" />
    <glyph glyph-name="Ccedilla" unicode="&#xc7;" horiz-adv-x="690" 
d="M615 0h-173l-9 -34c62 -11 98 -64 84 -123c-29 -113 -210 -102 -256 -15c-22 41 43 87 71 42c20 -32 92 -39 98 -3c3 20 -23 43 -72 26l-31 30l24 77c-447 12 -443 700 11 700h253c28 0 50 -23 50 -50v-104c0 -28 -22 -51 -50 -51c-27 0 -50 23 -50 51v54h-203
c-326 0 -326 -499 0 -499h253c28 0 50 -23 50 -51c0 -27 -22 -50 -50 -50z" />
    <glyph glyph-name="Idieresis" unicode="&#xcf;" horiz-adv-x="318" 
d="M2 817c0 33 25 59 58 59c32 0 57 -26 57 -58s-24 -59 -57 -59c-32 0 -58 26 -58 58zM200 817c0 33 25 59 58 59c32 0 57 -26 57 -58s-24 -59 -57 -59c-32 0 -58 26 -58 58zM255 100c27 0 50 -22 50 -50c0 -27 -23 -50 -50 -50h-193c-27 0 -50 23 -50 50c0 28 23 50 50 50
h46v501h-46c-27 0 -50 22 -50 50c0 27 23 50 50 50h193c27 0 50 -23 50 -50c0 -28 -23 -50 -50 -50h-46v-501h46z" />
    <glyph glyph-name="Icircumflex" unicode="&#xce;" horiz-adv-x="318" 
d="M255 100c27 0 50 -22 50 -50c0 -27 -23 -50 -50 -50h-193c-27 0 -50 23 -50 50c0 28 23 50 50 50h46v501h-46c-27 0 -50 22 -50 50c0 27 23 50 50 50h193c27 0 50 -23 50 -50c0 -28 -23 -50 -50 -50h-46v-501h46zM197 893l77 -51c55 -42 2 -105 -52 -76l-63 43l-66 -45
c-53 -31 -109 40 -54 75l84 55c29 19 47 14 74 -1z" />
    <glyph glyph-name="Iacute" unicode="&#xcd;" horiz-adv-x="318" 
d="M255 100c27 0 50 -22 50 -50c0 -27 -23 -50 -50 -50h-193c-27 0 -50 23 -50 50c0 28 23 50 50 50h46v501h-46c-27 0 -50 22 -50 50c0 27 23 50 50 50h193c27 0 50 -23 50 -50c0 -28 -23 -50 -50 -50h-46v-501h46zM119 832l64 70c48 48 117 -24 70 -70l-66 -62
c-43 -39 -107 25 -68 62z" />
    <glyph glyph-name="Igrave" unicode="&#xcc;" horiz-adv-x="318" 
d="M255 100c27 0 50 -22 50 -50c0 -27 -23 -50 -50 -50h-193c-27 0 -50 23 -50 50c0 28 23 50 50 50h46v501h-46c-27 0 -50 22 -50 50c0 27 23 50 50 50h193c27 0 50 -23 50 -50c0 -28 -23 -50 -50 -50h-46v-501h46zM140 910l64 -70c39 -37 -25 -101 -68 -62l-66 62
c-47 46 22 118 70 70z" />
    <glyph glyph-name="Edieresis" unicode="&#xcb;" horiz-adv-x="730" 
d="M652 198c28 0 50 -22 50 -50v-95c0 -20 -11 -36 -27 -45c-8 -5 -18 -8 -28 -8h-552c-28 0 -50 22 -50 50c0 27 22 50 50 50h46v201h-46c-28 0 -50 23 -50 51c0 27 22 50 50 50h46v198h-46c-28 0 -50 22 -50 50s22 50 50 50h532c27 0 50 -22 50 -50v-104
c0 -28 -23 -50 -50 -50c-28 0 -51 22 -51 50v54h-335v-198h228c27 0 50 -23 50 -50c0 -28 -23 -51 -50 -51h-228v-201h361v48c0 28 22 50 50 50zM198 822c0 33 25 59 58 59c32 0 57 -26 57 -58s-24 -59 -57 -59c-32 0 -58 26 -58 58zM470 822c0 33 25 59 58 59
c32 0 57 -26 57 -58s-24 -59 -57 -59c-32 0 -58 26 -58 58z" />
    <glyph glyph-name="Ecircumflex" unicode="&#xca;" horiz-adv-x="730" 
d="M652 198c28 0 50 -22 50 -50v-95c0 -20 -11 -36 -27 -45c-8 -5 -18 -8 -28 -8h-552c-28 0 -50 22 -50 50c0 27 22 50 50 50h46v201h-46c-28 0 -50 23 -50 51c0 27 22 50 50 50h46v198h-46c-28 0 -50 22 -50 50s22 50 50 50h532c27 0 50 -22 50 -50v-104
c0 -28 -23 -50 -50 -50c-28 0 -51 22 -51 50v54h-335v-198h228c27 0 50 -23 50 -50c0 -28 -23 -51 -50 -51h-228v-201h361v48c0 28 22 50 50 50zM434 902l77 -51c55 -42 2 -105 -52 -76l-63 43l-66 -45c-53 -31 -109 40 -54 75l84 55c29 19 47 14 74 -1z" />
    <glyph glyph-name="Eacute" unicode="&#xc9;" horiz-adv-x="730" 
d="M652 198c28 0 50 -22 50 -50v-95c0 -20 -11 -36 -27 -45c-8 -5 -18 -8 -28 -8h-552c-28 0 -50 22 -50 50c0 27 22 50 50 50h46v201h-46c-28 0 -50 23 -50 51c0 27 22 50 50 50h46v198h-46c-28 0 -50 22 -50 50s22 50 50 50h532c27 0 50 -22 50 -50v-104
c0 -28 -23 -50 -50 -50c-28 0 -51 22 -51 50v54h-335v-198h228c27 0 50 -23 50 -50c0 -28 -23 -51 -50 -51h-228v-201h361v48c0 28 22 50 50 50zM350 832l64 70c48 48 117 -24 70 -70l-66 -62c-43 -39 -107 25 -68 62z" />
    <glyph glyph-name="Egrave" unicode="&#xc8;" horiz-adv-x="730" 
d="M652 198c28 0 50 -22 50 -50v-95c0 -20 -11 -36 -27 -45c-8 -5 -18 -8 -28 -8h-552c-28 0 -50 22 -50 50c0 27 22 50 50 50h46v201h-46c-28 0 -50 23 -50 51c0 27 22 50 50 50h46v198h-46c-28 0 -50 22 -50 50s22 50 50 50h532c27 0 50 -22 50 -50v-104
c0 -28 -23 -50 -50 -50c-28 0 -51 22 -51 50v54h-335v-198h228c27 0 50 -23 50 -50c0 -28 -23 -51 -50 -51h-228v-201h361v48c0 28 22 50 50 50zM363 899l64 -70c39 -37 -25 -101 -68 -62l-66 62c-47 46 22 118 70 70z" />
    <glyph glyph-name="Eth" unicode="&#xd0;" horiz-adv-x="758" 
d="M388 700c458 0 458 -700 0 -700h-294c-28 0 -50 23 -50 50c0 28 22 50 50 50h50v202h-52c-28 0 -50 23 -50 50c0 28 22 50 50 50h52v197h-50c-28 0 -50 23 -50 51c0 27 22 50 50 50h294zM375 302h-131v-202h143c328 0 327 499 1 499h-144v-197h131c27 0 50 -22 50 -50
c0 -27 -23 -50 -50 -50z" />
    <glyph glyph-name="Odieresis" unicode="&#xd6;" horiz-adv-x="790" 
d="M393 -29c-499 0 -499 759 0 759s499 -759 0 -759zM393 630c-367 0 -367 -559 0 -559s367 559 0 559zM199 822c0 33 25 59 58 59c32 0 57 -26 57 -58s-24 -59 -57 -59c-32 0 -58 26 -58 58zM471 822c0 33 25 59 58 59c32 0 57 -26 57 -58s-24 -59 -57 -59
c-32 0 -58 26 -58 58z" />
    <glyph glyph-name="Otilde" unicode="&#xd5;" horiz-adv-x="790" 
d="M393 -29c-499 0 -499 759 0 759s499 -759 0 -759zM393 630c-367 0 -367 -559 0 -559s367 559 0 559zM251 845c18 42 58 62 95 62c61 0 104 -70 131 -34c35 47 104 15 73 -44c-23 -38 -62 -57 -98 -57c-56 0 -96 76 -127 33c-24 -39 -95 -9 -74 40z" />
    <glyph glyph-name="Ocircumflex" unicode="&#xd4;" horiz-adv-x="790" 
d="M393 -29c-499 0 -499 759 0 759s499 -759 0 -759zM393 630c-367 0 -367 -559 0 -559s367 559 0 559zM432 907l77 -51c55 -42 2 -105 -52 -76l-63 43l-66 -45c-53 -31 -109 40 -54 75l84 55c29 19 47 14 74 -1z" />
    <glyph glyph-name="Oacute" unicode="&#xd3;" horiz-adv-x="790" 
d="M393 -29c-499 0 -499 759 0 759s499 -759 0 -759zM393 630c-367 0 -367 -559 0 -559s367 559 0 559zM367 845l64 70c48 48 117 -24 70 -70l-66 -62c-43 -39 -107 25 -68 62z" />
    <glyph glyph-name="Ograve" unicode="&#xd2;" horiz-adv-x="790" 
d="M393 -29c499 0 499 759 0 759s-499 -759 0 -759zM393 630c367 0 367 -559 0 -559s-367 559 0 559zM378 918l64 -70c39 -37 -25 -101 -68 -62l-66 62c-47 46 22 118 70 70z" />
    <glyph glyph-name="Ntilde" unicode="&#xd1;" horiz-adv-x="856" 
d="M758 700c28 0 50 -22 50 -50c0 -27 -22 -50 -50 -50h-42v-545c0 -50 -59 -71 -90 -32l-391 485v-408h42c28 0 50 -22 50 -50s-22 -50 -50 -50h-184c-28 0 -51 22 -51 50s23 50 51 50h42v500h-42c-28 0 -51 23 -51 50c0 28 23 50 51 50h89c18 0 32 -6 43 -20l391 -485v405
h-42c-28 0 -50 23 -50 50c0 28 22 50 50 50h184zM257 826c18 42 58 62 95 62c61 0 104 -70 131 -34c35 47 104 15 73 -44c-23 -38 -62 -57 -98 -57c-56 0 -96 76 -127 33c-24 -39 -95 -9 -74 40z" />
    <glyph glyph-name="Oslash" unicode="&#xd8;" horiz-adv-x="790" 
d="M393 -29c-51 0 -96 8 -136 22l-42 -76c-12 -24 -42 -36 -67 -24c-24 11 -37 42 -24 66l44 80c-257 186 -182 691 225 691c54 0 101 -10 143 -25l37 66c11 25 42 36 67 24s36 -41 24 -66l-40 -72c249 -190 172 -686 -231 -686zM393 630c-294 0 -353 -359 -176 -502
l270 488c-28 9 -60 14 -94 14zM393 71c290 0 350 350 181 496l-268 -484c26 -8 55 -12 87 -12z" />
    <glyph glyph-name="Yacute" unicode="&#xdd;" horiz-adv-x="724" 
d="M671 700c27 0 50 -22 50 -50c0 -27 -23 -50 -50 -50h-32l-228 -287v-213h31c28 0 51 -22 51 -50c0 -27 -23 -50 -51 -50h-157c-27 0 -50 23 -50 50c0 28 23 50 50 50h26v209l-236 291h-26c-27 0 -50 23 -50 50c0 28 23 50 50 50h158c27 0 50 -22 50 -50
c0 -27 -23 -50 -50 -50h-2l154 -192l151 192c-26 2 -47 24 -47 50c0 28 23 50 51 50h157zM324 835l64 70c48 48 117 -24 70 -70l-66 -62c-43 -39 -107 25 -68 62z" />
    <glyph glyph-name="Udieresis" unicode="&#xdc;" horiz-adv-x="862" 
d="M768 700c28 0 50 -22 50 -50c0 -27 -22 -50 -50 -50h-50v-400c0 -110 -90 -200 -200 -200h-176c-110 0 -200 90 -200 200v400h-43c-27 0 -50 23 -50 50c0 28 23 50 50 50h192c28 0 51 -22 51 -50c0 -27 -23 -50 -51 -50h-48v-400c0 -55 44 -100 99 -100h176
c55 0 99 45 99 100v400h-41c-28 0 -51 23 -51 50c0 28 23 50 51 50h192zM237 822c0 33 25 59 58 59c32 0 57 -26 57 -58s-24 -59 -57 -59c-32 0 -58 26 -58 58zM509 822c0 33 25 59 58 59c32 0 57 -26 57 -58s-24 -59 -57 -59c-32 0 -58 26 -58 58z" />
    <glyph glyph-name="Ucircumflex" unicode="&#xdb;" horiz-adv-x="862" 
d="M768 700c28 0 50 -22 50 -50c0 -27 -22 -50 -50 -50h-50v-400c0 -110 -90 -200 -200 -200h-176c-110 0 -200 90 -200 200v400h-43c-27 0 -50 23 -50 50c0 28 23 50 50 50h192c28 0 51 -22 51 -50c0 -27 -23 -50 -51 -50h-48v-400c0 -55 44 -100 99 -100h176
c55 0 99 45 99 100v400h-41c-28 0 -51 23 -51 50c0 28 23 50 51 50h192zM469 903l77 -51c55 -42 2 -105 -52 -76l-63 43l-66 -45c-53 -31 -109 40 -54 75l84 55c29 19 47 14 74 -1z" />
    <glyph glyph-name="Uacute" unicode="&#xda;" horiz-adv-x="862" 
d="M768 700c28 0 50 -22 50 -50c0 -27 -22 -50 -50 -50h-50v-400c0 -110 -90 -200 -200 -200h-176c-110 0 -200 90 -200 200v400h-43c-27 0 -50 23 -50 50c0 28 23 50 50 50h192c28 0 51 -22 51 -50c0 -27 -23 -50 -51 -50h-48v-400c0 -55 44 -100 99 -100h176
c55 0 99 45 99 100v400h-41c-28 0 -51 23 -51 50c0 28 23 50 51 50h192zM406 838l64 70c48 48 117 -24 70 -70l-66 -62c-43 -39 -107 25 -68 62z" />
    <glyph glyph-name="Ugrave" unicode="&#xd9;" horiz-adv-x="862" 
d="M768 700c28 0 50 -22 50 -50c0 -27 -22 -50 -50 -50h-50v-400c0 -110 -90 -200 -200 -200h-176c-110 0 -200 90 -200 200v400h-43c-27 0 -50 23 -50 50c0 28 23 50 50 50h192c28 0 51 -22 51 -50c0 -27 -23 -50 -51 -50h-48v-400c0 -55 44 -100 99 -100h176
c55 0 99 45 99 100v400h-41c-28 0 -51 23 -51 50c0 28 23 50 51 50h192zM406 908l64 -70c39 -37 -25 -101 -68 -62l-66 62c-47 46 22 118 70 70z" />
    <glyph glyph-name="aring" unicode="&#xe5;" 
d="M754 101c28 0 50 -23 50 -51c0 -27 -22 -50 -50 -50h-180c-27 0 -50 23 -50 50c0 28 23 51 50 51h22l-53 117h-282l-53 -117h22c27 0 50 -23 50 -51c0 -27 -23 -50 -50 -50h-180c-28 0 -50 23 -50 50c0 28 22 51 50 51h48l53 117h-5c-28 0 -50 22 -50 50
c0 27 22 50 50 50h50l127 285h-11c-28 0 -50 22 -50 50c0 27 22 50 50 50h180c28 0 50 -23 50 -50c0 -28 -22 -50 -50 -50h-11l127 -285h50c28 0 50 -23 50 -50c0 -28 -22 -50 -50 -50h-5l53 -117h48zM306 318h192l-96 217zM287 838c0 143 236 143 236 0
c0 -141 -236 -141 -236 0zM403 878c-53 0 -56 -79 0 -79c59 0 59 79 0 79z" />
    <glyph glyph-name="adieresis" unicode="&#xe4;" 
d="M754 101c28 0 50 -23 50 -51c0 -27 -22 -50 -50 -50h-180c-27 0 -50 23 -50 50c0 28 23 51 50 51h22l-53 117h-282l-53 -117h22c27 0 50 -23 50 -51c0 -27 -23 -50 -50 -50h-180c-28 0 -50 23 -50 50c0 28 22 51 50 51h48l53 117h-5c-28 0 -50 22 -50 50
c0 27 22 50 50 50h50l127 285h-11c-28 0 -50 22 -50 50c0 27 22 50 50 50h180c28 0 50 -23 50 -50c0 -28 -22 -50 -50 -50h-11l127 -285h50c28 0 50 -23 50 -50c0 -28 -22 -50 -50 -50h-5l53 -117h48zM306 318h192l-96 217zM209 818c0 33 25 59 58 59c32 0 57 -26 57 -58
s-24 -59 -57 -59c-32 0 -58 26 -58 58zM481 818c0 33 25 59 58 59c32 0 57 -26 57 -58s-24 -59 -57 -59c-32 0 -58 26 -58 58z" />
    <glyph glyph-name="atilde" unicode="&#xe3;" 
d="M754 101c28 0 50 -23 50 -51c0 -27 -22 -50 -50 -50h-180c-27 0 -50 23 -50 50c0 28 23 51 50 51h22l-53 117h-282l-53 -117h22c27 0 50 -23 50 -51c0 -27 -23 -50 -50 -50h-180c-28 0 -50 23 -50 50c0 28 22 51 50 51h48l53 117h-5c-28 0 -50 22 -50 50
c0 27 22 50 50 50h50l127 285h-11c-28 0 -50 22 -50 50c0 27 22 50 50 50h180c28 0 50 -23 50 -50c0 -28 -22 -50 -50 -50h-11l127 -285h50c28 0 50 -23 50 -50c0 -28 -22 -50 -50 -50h-5l53 -117h48zM306 318h192l-96 217zM248 816c18 42 58 62 95 62c61 0 104 -70 131 -34
c35 47 104 15 73 -44c-23 -38 -62 -57 -98 -57c-56 0 -96 76 -127 33c-24 -39 -95 -9 -74 40z" />
    <glyph glyph-name="acircumflex" unicode="&#xe2;" 
d="M754 101c28 0 50 -23 50 -51c0 -27 -22 -50 -50 -50h-180c-27 0 -50 23 -50 50c0 28 23 51 50 51h22l-53 117h-282l-53 -117h22c27 0 50 -23 50 -51c0 -27 -23 -50 -50 -50h-180c-28 0 -50 23 -50 50c0 28 22 51 50 51h48l53 117h-5c-28 0 -50 22 -50 50
c0 27 22 50 50 50h50l127 285h-11c-28 0 -50 22 -50 50c0 27 22 50 50 50h180c28 0 50 -23 50 -50c0 -28 -22 -50 -50 -50h-11l127 -285h50c28 0 50 -23 50 -50c0 -28 -22 -50 -50 -50h-5l53 -117h48zM306 318h192l-96 217zM443 895l77 -51c55 -42 2 -105 -52 -76l-63 43
l-66 -45c-53 -31 -109 40 -54 75l84 55c29 19 47 14 74 -1z" />
    <glyph glyph-name="aacute" unicode="&#xe1;" 
d="M754 101c28 0 50 -23 50 -51c0 -27 -22 -50 -50 -50h-180c-27 0 -50 23 -50 50c0 28 23 51 50 51h22l-53 117h-282l-53 -117h22c27 0 50 -23 50 -51c0 -27 -23 -50 -50 -50h-180c-28 0 -50 23 -50 50c0 28 22 51 50 51h48l53 117h-5c-28 0 -50 22 -50 50
c0 27 22 50 50 50h50l127 285h-11c-28 0 -50 22 -50 50c0 27 22 50 50 50h180c28 0 50 -23 50 -50c0 -28 -22 -50 -50 -50h-11l127 -285h50c28 0 50 -23 50 -50c0 -28 -22 -50 -50 -50h-5l53 -117h48zM306 318h192l-96 217zM369 829l64 70c48 48 117 -24 70 -70l-66 -62
c-43 -39 -107 25 -68 62z" />
    <glyph glyph-name="agrave" unicode="&#xe0;" 
d="M754 101c28 0 50 -23 50 -51c0 -27 -22 -50 -50 -50h-180c-27 0 -50 23 -50 50c0 28 23 51 50 51h22l-53 117h-282l-53 -117h22c27 0 50 -23 50 -51c0 -27 -23 -50 -50 -50h-180c-28 0 -50 23 -50 50c0 28 22 51 50 51h48l53 117h-5c-28 0 -50 22 -50 50
c0 27 22 50 50 50h50l127 285h-11c-28 0 -50 22 -50 50c0 27 22 50 50 50h180c28 0 50 -23 50 -50c0 -28 -22 -50 -50 -50h-11l127 -285h50c28 0 50 -23 50 -50c0 -28 -22 -50 -50 -50h-5l53 -117h48zM306 318h192l-96 217zM380 899l64 -70c39 -37 -25 -101 -68 -62l-66 62
c-47 46 22 118 70 70z" />
    <glyph glyph-name="idieresis" unicode="&#xef;" horiz-adv-x="318" 
d="M21 819c0 33 25 59 58 59c32 0 57 -26 57 -58s-24 -59 -57 -59c-32 0 -58 26 -58 58zM204 819c0 33 25 59 58 59c32 0 57 -26 57 -58s-24 -59 -57 -59c-32 0 -58 26 -58 58zM255 100c27 0 50 -22 50 -50c0 -27 -23 -50 -50 -50h-193c-27 0 -50 23 -50 50
c0 28 23 50 50 50h46v501h-46c-27 0 -50 22 -50 50c0 27 23 50 50 50h193c27 0 50 -23 50 -50c0 -28 -23 -50 -50 -50h-46v-501h46z" />
    <glyph glyph-name="icircumflex" unicode="&#xee;" horiz-adv-x="318" 
d="M255 100c27 0 50 -22 50 -50c0 -27 -23 -50 -50 -50h-193c-27 0 -50 23 -50 50c0 28 23 50 50 50h46v501h-46c-27 0 -50 22 -50 50c0 27 23 50 50 50h193c27 0 50 -23 50 -50c0 -28 -23 -50 -50 -50h-46v-501h46zM200 850l77 -51c55 -42 2 -105 -52 -76l-63 43l-66 -45
c-53 -31 -109 40 -54 75l84 55c29 19 47 14 74 -1z" />
    <glyph glyph-name="iacute" unicode="&#xed;" horiz-adv-x="318" 
d="M255 100c27 0 50 -22 50 -50c0 -27 -23 -50 -50 -50h-193c-27 0 -50 23 -50 50c0 28 23 50 50 50h46v501h-46c-27 0 -50 22 -50 50c0 27 23 50 50 50h193c27 0 50 -23 50 -50c0 -28 -23 -50 -50 -50h-46v-501h46zM121 834l64 70c48 48 117 -24 70 -70l-66 -62
c-43 -39 -107 25 -68 62z" />
    <glyph glyph-name="igrave" unicode="&#xec;" horiz-adv-x="318" 
d="M255 100c27 0 50 -22 50 -50c0 -27 -23 -50 -50 -50h-193c-27 0 -50 23 -50 50c0 28 23 50 50 50h46v501h-46c-27 0 -50 22 -50 50c0 27 23 50 50 50h193c27 0 50 -23 50 -50c0 -28 -23 -50 -50 -50h-46v-501h46zM136 903l64 -70c39 -37 -25 -101 -68 -62l-66 62
c-47 46 22 118 70 70z" />
    <glyph glyph-name="edieresis" unicode="&#xeb;" horiz-adv-x="730" 
d="M652 198c28 0 50 -22 50 -50v-95c0 -20 -11 -36 -27 -45c-8 -5 -18 -8 -28 -8h-552c-28 0 -50 22 -50 50c0 27 22 50 50 50h46v201h-46c-28 0 -50 23 -50 51c0 27 22 50 50 50h46v198h-46c-28 0 -50 22 -50 50s22 50 50 50h532c27 0 50 -22 50 -50v-104
c0 -28 -23 -50 -50 -50c-28 0 -51 22 -51 50v54h-335v-198h228c27 0 50 -23 50 -50c0 -28 -23 -51 -50 -51h-228v-201h361v48c0 28 22 50 50 50zM199 813c0 33 25 59 58 59c32 0 57 -26 57 -58s-24 -59 -57 -59c-32 0 -58 26 -58 58zM471 813c0 33 25 59 58 59
c32 0 57 -26 57 -58s-24 -59 -57 -59c-32 0 -58 26 -58 58z" />
    <glyph glyph-name="ecircumflex" unicode="&#xea;" horiz-adv-x="730" 
d="M652 198c28 0 50 -22 50 -50v-95c0 -20 -11 -36 -27 -45c-8 -5 -18 -8 -28 -8h-552c-28 0 -50 22 -50 50c0 27 22 50 50 50h46v201h-46c-28 0 -50 23 -50 51c0 27 22 50 50 50h46v198h-46c-28 0 -50 22 -50 50s22 50 50 50h532c27 0 50 -22 50 -50v-104
c0 -28 -23 -50 -50 -50c-28 0 -51 22 -51 50v54h-335v-198h228c27 0 50 -23 50 -50c0 -28 -23 -51 -50 -51h-228v-201h361v48c0 28 22 50 50 50zM434 890l77 -51c55 -42 2 -105 -52 -76l-63 43l-66 -45c-53 -31 -109 40 -54 75l84 55c29 19 47 14 74 -1z" />
    <glyph glyph-name="eacute" unicode="&#xe9;" horiz-adv-x="730" 
d="M652 198c28 0 50 -22 50 -50v-95c0 -20 -11 -36 -27 -45c-8 -5 -18 -8 -28 -8h-552c-28 0 -50 22 -50 50c0 27 22 50 50 50h46v201h-46c-28 0 -50 23 -50 51c0 27 22 50 50 50h46v198h-46c-28 0 -50 22 -50 50s22 50 50 50h532c27 0 50 -22 50 -50v-104
c0 -28 -23 -50 -50 -50c-28 0 -51 22 -51 50v54h-335v-198h228c27 0 50 -23 50 -50c0 -28 -23 -51 -50 -51h-228v-201h361v48c0 28 22 50 50 50zM348 830l64 70c48 48 117 -24 70 -70l-66 -62c-43 -39 -107 25 -68 62z" />
    <glyph glyph-name="egrave" unicode="&#xe8;" horiz-adv-x="730" 
d="M652 198c28 0 50 -22 50 -50v-95c0 -20 -11 -36 -27 -45c-8 -5 -18 -8 -28 -8h-552c-28 0 -50 22 -50 50c0 27 22 50 50 50h46v201h-46c-28 0 -50 23 -50 51c0 27 22 50 50 50h46v198h-46c-28 0 -50 22 -50 50s22 50 50 50h532c27 0 50 -22 50 -50v-104
c0 -28 -23 -50 -50 -50c-28 0 -51 22 -51 50v54h-335v-198h228c27 0 50 -23 50 -50c0 -28 -23 -51 -50 -51h-228v-201h361v48c0 28 22 50 50 50zM365 898l64 -70c39 -37 -25 -101 -68 -62l-66 62c-47 46 22 118 70 70z" />
    <glyph glyph-name="odieresis" unicode="&#xf6;" horiz-adv-x="790" 
d="M393 -29c-499 0 -499 759 0 759s499 -759 0 -759zM393 626c-362 0 -362 -551 0 -551s362 551 0 551zM197 823c0 33 25 59 58 59c32 0 57 -26 57 -58s-24 -59 -57 -59c-32 0 -58 26 -58 58zM469 823c0 33 25 59 58 59c32 0 57 -26 57 -58s-24 -59 -57 -59
c-32 0 -58 26 -58 58z" />
    <glyph glyph-name="otilde" unicode="&#xf5;" horiz-adv-x="790" 
d="M393 -29c-499 0 -499 759 0 759s499 -759 0 -759zM393 626c-362 0 -362 -551 0 -551s362 551 0 551zM247 844c18 42 58 62 95 62c61 0 104 -70 131 -34c35 47 104 15 73 -44c-23 -38 -62 -57 -98 -57c-56 0 -96 76 -127 33c-24 -39 -95 -9 -74 40z" />
    <glyph glyph-name="ocircumflex" unicode="&#xf4;" horiz-adv-x="790" 
d="M393 -29c-499 0 -499 759 0 759s499 -759 0 -759zM393 626c-362 0 -362 -551 0 -551s362 551 0 551zM437 906l77 -51c55 -42 2 -105 -52 -76l-63 43l-66 -45c-53 -31 -109 40 -54 75l84 55c29 19 47 14 74 -1z" />
    <glyph glyph-name="oacute" unicode="&#xf3;" horiz-adv-x="790" 
d="M393 -29c-499 0 -499 759 0 759s499 -759 0 -759zM393 626c-362 0 -362 -551 0 -551s362 551 0 551zM360 844l64 70c48 48 117 -24 70 -70l-66 -62c-43 -39 -107 25 -68 62z" />
    <glyph glyph-name="ograve" unicode="&#xf2;" horiz-adv-x="790" 
d="M393 -29c499 0 499 759 0 759s-499 -759 0 -759zM393 626c362 0 362 -551 0 -551s-362 551 0 551zM367 911l64 -70c39 -37 -25 -101 -68 -62l-66 62c-47 46 22 118 70 70z" />
    <glyph glyph-name="ntilde" unicode="&#xf1;" horiz-adv-x="856" 
d="M758 700c28 0 50 -22 50 -50c0 -27 -22 -50 -50 -50h-42v-545c0 -50 -59 -71 -90 -32l-391 485v-408h42c28 0 50 -22 50 -50s-22 -50 -50 -50h-184c-28 0 -51 22 -51 50s23 50 51 50h42v500h-42c-28 0 -51 23 -51 50c0 28 23 50 51 50h89c18 0 32 -6 43 -20l391 -485v405
h-42c-28 0 -50 23 -50 50c0 28 22 50 50 50h184zM260 832c18 42 58 62 95 62c61 0 104 -70 131 -34c35 47 104 15 73 -44c-23 -38 -62 -57 -98 -57c-56 0 -96 76 -127 33c-24 -39 -95 -9 -74 40z" />
    <glyph glyph-name="ydieresis" unicode="&#xff;" horiz-adv-x="724" 
d="M671 700c27 0 50 -22 50 -50c0 -27 -23 -50 -50 -50h-32l-228 -287v-213h31c28 0 51 -22 51 -50c0 -27 -23 -50 -51 -50h-157c-27 0 -50 23 -50 50c0 28 23 50 50 50h26v209l-236 291h-26c-27 0 -50 23 -50 50c0 28 23 50 50 50h158c27 0 50 -22 50 -50
c0 -27 -23 -50 -50 -50h-2l154 -192l151 192c-26 2 -47 24 -47 50c0 28 23 50 51 50h157zM168 824c0 33 25 59 58 59c32 0 57 -26 57 -58s-24 -59 -57 -59c-32 0 -58 26 -58 58zM440 824c0 33 25 59 58 59c32 0 57 -26 57 -58s-24 -59 -57 -59c-32 0 -58 26 -58 58z" />
    <glyph glyph-name="yacute" unicode="&#xfd;" horiz-adv-x="724" 
d="M671 700c27 0 50 -22 50 -50c0 -27 -23 -50 -50 -50h-32l-228 -287v-213h31c28 0 51 -22 51 -50c0 -27 -23 -50 -51 -50h-157c-27 0 -50 23 -50 50c0 28 23 50 50 50h26v209l-236 291h-26c-27 0 -50 23 -50 50c0 28 23 50 50 50h158c27 0 50 -22 50 -50
c0 -27 -23 -50 -50 -50h-2l154 -192l151 192c-26 2 -47 24 -47 50c0 28 23 50 51 50h157zM332 831l64 70c48 48 117 -24 70 -70l-66 -62c-43 -39 -107 25 -68 62z" />
    <glyph glyph-name="udieresis" unicode="&#xfc;" horiz-adv-x="862" 
d="M768 700c28 0 50 -22 50 -50c0 -27 -22 -50 -50 -50h-50v-400c0 -110 -90 -200 -200 -200h-176c-110 0 -200 90 -200 200v400h-43c-27 0 -50 23 -50 50c0 28 23 50 50 50h192c28 0 51 -22 51 -50c0 -27 -23 -50 -51 -50h-48v-400c0 -55 44 -100 99 -100h176
c55 0 99 45 99 100v400h-41c-28 0 -51 23 -51 50c0 28 23 50 51 50h192zM245 821c0 33 25 59 58 59c32 0 57 -26 57 -58s-24 -59 -57 -59c-32 0 -58 26 -58 58zM517 821c0 33 25 59 58 59c32 0 57 -26 57 -58s-24 -59 -57 -59c-32 0 -58 26 -58 58z" />
    <glyph glyph-name="ucircumflex" unicode="&#xfb;" horiz-adv-x="862" 
d="M768 700c28 0 50 -22 50 -50c0 -27 -22 -50 -50 -50h-50v-400c0 -110 -90 -200 -200 -200h-176c-110 0 -200 90 -200 200v400h-43c-27 0 -50 23 -50 50c0 28 23 50 50 50h192c28 0 51 -22 51 -50c0 -27 -23 -50 -51 -50h-48v-400c0 -55 44 -100 99 -100h176
c55 0 99 45 99 100v400h-41c-28 0 -51 23 -51 50c0 28 23 50 51 50h192zM474 896l77 -51c55 -42 2 -105 -52 -76l-63 43l-66 -45c-53 -31 -109 40 -54 75l84 55c29 19 47 14 74 -1z" />
    <glyph glyph-name="uacute" unicode="&#xfa;" horiz-adv-x="862" 
d="M768 700c28 0 50 -22 50 -50c0 -27 -22 -50 -50 -50h-50v-400c0 -110 -90 -200 -200 -200h-176c-110 0 -200 90 -200 200v400h-43c-27 0 -50 23 -50 50c0 28 23 50 50 50h192c28 0 51 -22 51 -50c0 -27 -23 -50 -51 -50h-48v-400c0 -55 44 -100 99 -100h176
c55 0 99 45 99 100v400h-41c-28 0 -51 23 -51 50c0 28 23 50 51 50h192zM406 831l64 70c48 48 117 -24 70 -70l-66 -62c-43 -39 -107 25 -68 62z" />
    <glyph glyph-name="ugrave" unicode="&#xf9;" horiz-adv-x="862" 
d="M768 700c28 0 50 -22 50 -50c0 -27 -22 -50 -50 -50h-50v-400c0 -110 -90 -200 -200 -200h-176c-110 0 -200 90 -200 200v400h-43c-27 0 -50 23 -50 50c0 28 23 50 50 50h192c28 0 51 -22 51 -50c0 -27 -23 -50 -51 -50h-48v-400c0 -55 44 -100 99 -100h176
c55 0 99 45 99 100v400h-41c-28 0 -51 23 -51 50c0 28 23 50 51 50h192zM418 905l64 -70c39 -37 -25 -101 -68 -62l-66 62c-47 46 22 118 70 70z" />
    </font>
</defs>
</svg>
